<?xml version="1.0" encoding="UTF-8" standalone="no"?>
<!-- Created with Inkscape (http://www.inkscape.org/) -->

<svg
   xmlns:dc="http://purl.org/dc/elements/1.1/"
   xmlns:cc="http://creativecommons.org/ns#"
   xmlns:rdf="http://www.w3.org/1999/02/22-rdf-syntax-ns#"
   xmlns:svg="http://www.w3.org/2000/svg"
   xmlns="http://www.w3.org/2000/svg"
   xmlns:sodipodi="http://sodipodi.sourceforge.net/DTD/sodipodi-0.dtd"
   xmlns:inkscape="http://www.inkscape.org/namespaces/inkscape"
   width="57"
   height="19"
   id="svg2"
   version="1.1"
   inkscape:version="0.48.4 r9939"
   sodipodi:docname="drawing.svg"
   inkscape:export-filename="C:\xampp183\htdocs\xampp\tyrannosaurus\databaseTest\img\items\img_checkbox.png"
   inkscape:export-xdpi="90"
   inkscape:export-ydpi="90">
  <defs
     id="defs4" />
  <sodipodi:namedview
     id="base"
     pagecolor="#ffffff"
     bordercolor="#666666"
     borderopacity="1.0"
     inkscape:pageopacity="0.0"
     inkscape:pageshadow="2"
     inkscape:zoom="14.826128"
     inkscape:cx="20.086736"
     inkscape:cy="7.9560523"
     inkscape:document-units="px"
     inkscape:current-layer="layer1"
     showgrid="false"
     showguides="true"
     inkscape:guide-bbox="true"
     inkscape:window-width="2048"
     inkscape:window-height="1089"
     inkscape:window-x="-8"
     inkscape:window-y="-8"
     inkscape:window-maximized="1" />
  <metadata
     id="metadata7">
    <rdf:RDF>
      <cc:Work
         rdf:about="">
        <dc:format>image/svg+xml</dc:format>
        <dc:type
           rdf:resource="http://purl.org/dc/dcmitype/StillImage" />
        <dc:title></dc:title>
      </cc:Work>
    </rdf:RDF>
  </metadata>
  <g
     inkscape:label="Layer 1"
     inkscape:groupmode="layer"
     id="layer1"
     transform="translate(0,-3138.0866)">
    <path
       sodipodi:type="arc"
       style="fill:#999999;fill-opacity:1;stroke:#000000;stroke-width:1.08873105000000000;stroke-opacity:1"
       id="path2989"
       sodipodi:cx="9.4834728"
       sodipodi:cy="9.4903297"
       sodipodi:rx="9.4834728"
       sodipodi:ry="9.4834728"
       d="m 18.966946,9.4903297 c 0,5.2375773 -4.245896,9.4834733 -9.4834732,9.4834733 C 4.2458954,18.973803 0,14.727907 0,9.4903297 0,4.2527523 4.2458954,0.00685692 9.4834728,0.00685692 c 5.2375772,0 9.4834732,4.24589538 9.4834732,9.48347278 z"
       transform="matrix(0.91850829,0,0,0.91849264,0.78899999,3138.8703)" />
    <path
       sodipodi:type="arc"
       style="fill:#e6e6e6;fill-opacity:1;stroke:#000000;stroke-width:1.08874034999999990;stroke-opacity:1"
       id="path2989-1"
       sodipodi:cx="9.4834728"
       sodipodi:cy="9.4903297"
       sodipodi:rx="9.4834728"
       sodipodi:ry="9.4834728"
       d="m 18.966946,9.4903297 c 0,5.2375773 -4.245896,9.4834733 -9.4834732,9.4834733 C 4.2458954,18.973803 0,14.727907 0,9.4903297 0,4.2527523 4.2458954,0.00685692 9.4834728,0.00685692 c 5.2375772,0 9.4834732,4.24589538 9.4834732,9.48347278 z"
       transform="matrix(0.91849264,0,0,0.91849264,19.789,3138.8703)" />
    <path
       sodipodi:type="arc"
       style="fill:#999999;fill-opacity:1;stroke:#000000;stroke-width:1.08874034999999990;stroke-opacity:1"
       id="path2989-1-7"
       sodipodi:cx="9.4834728"
       sodipodi:cy="9.4903297"
       sodipodi:rx="9.4834728"
       sodipodi:ry="9.4834728"
       d="m 18.966946,9.4903297 c 0,5.2375773 -4.245896,9.4834733 -9.4834732,9.4834733 C 4.2458954,18.973803 0,14.727907 0,9.4903297 0,4.2527523 4.2458954,0.00685692 9.4834728,0.00685692 c 5.2375772,0 9.4834732,4.24589538 9.4834732,9.48347278 z"
       transform="matrix(0.91849264,0,0,0.91849264,38.789,3139.1593)" />
    <path
       style="fill:#df0000;fill-opacity:1;stroke:#ff9ec5;stroke-width:0.99999994000000003;stroke-opacity:1"
       d="m 45.122474,3142.6717 -2.817217,2.837 2.367245,2.3674 -2.367245,2.387 2.817217,2.8173 2.367245,-2.3869 2.386809,2.3869 2.817217,-2.8173 -2.367245,-2.387 2.367245,-2.3674 -2.817217,-2.837 -2.386809,2.387 -2.367245,-2.387 z"
       id="rect2996"
       inkscape:connector-curvature="0"
       inkscape:export-filename="C:\xampp183\htdocs\xampp\tyrannosaurus\databaseTest\img\items\rect2996.png"
       inkscape:export-xdpi="90"
       inkscape:export-ydpi="90" />
  </g>
  <g
     inkscape:groupmode="layer"
     id="layer2"
     inkscape:label="Layer" />
</svg>
